# MagicaVoxel @ Ephtracy

# group
g FlorDeFuego

# material
mtllib FlorDeFuego.mtl
usemtl palette

# normals
vn -1 0 0
vn 1 0 0
vn 0 0 1
vn 0 0 -1
vn 0 -1 0
vn 0 1 0

# texcoords
vt 0.0175781 0.5
vt 0.0917969 0.5
vt 0.173828 0.5
vt 0.880859 0.5
vt 0.955078 0.5

# verts
v -12 6 -0
v -12 6 -2
v -12 9 -0
v -12 9 -2
v -11 4 -0
v -11 4 -2
v -11 6 -0
v -11 6 -2
v -10 3 -0
v -10 3 -2
v -10 4 -0
v -10 4 -2
v -10 17 3
v -10 17 -1
v -10 22 3
v -10 22 -1
v -9 2 -0
v -9 2 -2
v -9 3 -0
v -9 3 -2
v -9 15 3
v -9 15 -1
v -9 17 3
v -9 17 -1
v -9 22 3
v -9 22 -1
v -9 24 3
v -9 24 -1
v -8 13 3
v -8 13 -1
v -8 15 3
v -8 15 -1
v -8 24 3
v -8 24 -1
v -8 26 3
v -8 26 -1
v -7 1 -0
v -7 1 -2
v -7 2 -0
v -7 2 -2
v -6 12 3
v -6 12 -1
v -6 13 3
v -6 13 -1
v -6 26 3
v -6 26 -1
v -6 27 3
v -6 27 -1
v -5 0 -0
v -5 0 -2
v -5 1 -0
v -5 1 -2
v -4 11 3
v -4 11 -1
v -4 12 3
v -4 12 -1
v -4 27 3
v -4 27 -1
v -4 28 3
v -4 28 -1
v -2 1 -0
v -2 1 -2
v -2 11 -0
v -2 11 -1
v -2 16 -1
v -2 16 -2
v 3 1 -0
v 3 1 -2
v 3 3 -0
v 3 3 -2
v 4 3 -0
v 4 3 -2
v 4 4 -0
v 4 4 -2
v 4 13 3
v 4 13 2
v 4 14 3
v 4 14 2
v 4 25 3
v 4 25 2
v 4 26 3
v 4 26 2
v 5 4 -0
v 5 4 -2
v 5 6 -0
v 5 6 -2
v 6 6 -0
v 6 6 -2
v 6 7 -0
v 6 7 -2
v 6 14 3
v 6 14 2
v 6 15 3
v 6 15 2
v 6 24 3
v 6 24 2
v 6 25 3
v 6 25 2
v 7 7 -0
v 7 7 -2
v 7 8 -0
v 7 8 -2
v 7 15 3
v 7 15 2
v 7 17 3
v 7 17 2
v 7 22 3
v 7 22 2
v 7 24 3
v 7 24 2
v 8 17 3
v 8 17 2
v 8 22 3
v 8 22 2
v 9 8 -0
v 9 8 -2
v 9 9 -0
v 9 9 -2
v -9 8 -0
v -9 8 -2
v -9 9 -0
v -9 9 -2
v -8 17 3
v -8 17 2
v -8 22 3
v -8 22 2
v -7 7 -0
v -7 7 -2
v -7 8 -0
v -7 8 -2
v -7 15 3
v -7 15 2
v -7 17 3
v -7 17 2
v -7 22 3
v -7 22 2
v -7 24 3
v -7 24 2
v -6 6 -0
v -6 6 -2
v -6 7 -0
v -6 7 -2
v -6 14 3
v -6 14 2
v -6 15 3
v -6 15 2
v -6 24 3
v -6 24 2
v -6 25 3
v -6 25 2
v -5 4 -0
v -5 4 -2
v -5 6 -0
v -5 6 -2
v -4 3 -0
v -4 3 -2
v -4 4 -0
v -4 4 -2
v -4 13 3
v -4 13 2
v -4 14 3
v -4 14 2
v -4 25 3
v -4 25 2
v -4 26 3
v -4 26 2
v -3 1 -0
v -3 1 -2
v -3 3 -0
v -3 3 -2
v 2 1 -0
v 2 1 -2
v 2 11 -0
v 2 11 -1
v 2 16 -1
v 2 16 -2
v 4 11 3
v 4 11 -1
v 4 12 3
v 4 12 -1
v 4 27 3
v 4 27 -1
v 4 28 3
v 4 28 -1
v 5 0 -0
v 5 0 -2
v 5 1 -0
v 5 1 -2
v 6 12 3
v 6 12 -1
v 6 13 3
v 6 13 -1
v 6 26 3
v 6 26 -1
v 6 27 3
v 6 27 -1
v 7 1 -0
v 7 1 -2
v 7 2 -0
v 7 2 -2
v 8 13 3
v 8 13 -1
v 8 15 3
v 8 15 -1
v 8 24 3
v 8 24 -1
v 8 26 3
v 8 26 -1
v 9 2 -0
v 9 2 -2
v 9 3 -0
v 9 3 -2
v 9 15 3
v 9 15 -1
v 9 17 3
v 9 17 -1
v 9 22 3
v 9 22 -1
v 9 24 3
v 9 24 -1
v 10 3 -0
v 10 3 -2
v 10 4 -0
v 10 4 -2
v 10 17 3
v 10 17 -1
v 10 22 3
v 10 22 -1
v 11 4 -0
v 11 4 -2
v 11 6 -0
v 11 6 -2
v 12 6 -0
v 12 6 -2
v 12 9 -0
v 12 9 -2
v -10 17 3
v -10 22 3
v -9 15 3
v -9 17 3
v -9 22 3
v -9 24 3
v -8 13 3
v -8 15 3
v -8 17 3
v -8 22 3
v -8 24 3
v -8 26 3
v -7 15 3
v -7 17 3
v -7 22 3
v -7 24 3
v -6 12 3
v -6 13 3
v -6 14 3
v -6 15 3
v -6 24 3
v -6 25 3
v -6 26 3
v -6 27 3
v -4 11 3
v -4 12 3
v -4 13 3
v -4 14 3
v -4 25 3
v -4 26 3
v -4 27 3
v -4 28 3
v 4 11 3
v 4 12 3
v 4 13 3
v 4 14 3
v 4 25 3
v 4 26 3
v 4 27 3
v 4 28 3
v 6 12 3
v 6 13 3
v 6 14 3
v 6 15 3
v 6 24 3
v 6 25 3
v 6 26 3
v 6 27 3
v 7 15 3
v 7 17 3
v 7 22 3
v 7 24 3
v 8 13 3
v 8 15 3
v 8 17 3
v 8 22 3
v 8 24 3
v 8 26 3
v 9 15 3
v 9 17 3
v 9 22 3
v 9 24 3
v 10 17 3
v 10 22 3
v -8 17 2
v -8 22 2
v -7 15 2
v -7 17 2
v -7 22 2
v -7 24 2
v -6 14 2
v -6 15 2
v -6 17 2
v -6 22 2
v -6 24 2
v -6 25 2
v -5 16 2
v -5 17 2
v -5 22 2
v -5 23 2
v -4 13 2
v -4 14 2
v -4 15 2
v -4 16 2
v -4 23 2
v -4 24 2
v -4 25 2
v -4 26 2
v -3 19 2
v -3 22 2
v -2 19 2
v -2 22 2
v 2 19 2
v 2 22 2
v 3 19 2
v 3 22 2
v 4 13 2
v 4 14 2
v 4 15 2
v 4 16 2
v 4 23 2
v 4 24 2
v 4 25 2
v 4 26 2
v 5 16 2
v 5 17 2
v 5 22 2
v 5 23 2
v 6 14 2
v 6 15 2
v 6 17 2
v 6 22 2
v 6 24 2
v 6 25 2
v 7 15 2
v 7 17 2
v 7 22 2
v 7 24 2
v 8 17 2
v 8 22 2
v -12 6 -0
v -12 9 -0
v -11 4 -0
v -11 6 -0
v -10 3 -0
v -10 4 -0
v -9 2 -0
v -9 3 -0
v -9 8 -0
v -9 9 -0
v -7 1 -0
v -7 2 -0
v -7 7 -0
v -7 8 -0
v -6 6 -0
v -6 7 -0
v -5 0 -0
v -5 1 -0
v -5 4 -0
v -5 6 -0
v -4 3 -0
v -4 4 -0
v -3 1 -0
v -3 3 -0
v -2 1 -0
v -2 11 -0
v 2 1 -0
v 2 11 -0
v 3 1 -0
v 3 3 -0
v 4 3 -0
v 4 4 -0
v 5 0 -0
v 5 1 -0
v 5 4 -0
v 5 6 -0
v 6 6 -0
v 6 7 -0
v 7 1 -0
v 7 2 -0
v 7 7 -0
v 7 8 -0
v 9 2 -0
v 9 3 -0
v 9 8 -0
v 9 9 -0
v 10 3 -0
v 10 4 -0
v 11 4 -0
v 11 6 -0
v 12 6 -0
v 12 9 -0
v -10 17 -1
v -10 22 -1
v -9 15 -1
v -9 17 -1
v -9 22 -1
v -9 24 -1
v -8 13 -1
v -8 15 -1
v -8 24 -1
v -8 26 -1
v -6 12 -1
v -6 13 -1
v -6 26 -1
v -6 27 -1
v -4 11 -1
v -4 12 -1
v -4 27 -1
v -4 28 -1
v -2 11 -1
v -2 16 -1
v 2 11 -1
v 2 16 -1
v 4 11 -1
v 4 12 -1
v 4 27 -1
v 4 28 -1
v 6 12 -1
v 6 13 -1
v 6 26 -1
v 6 27 -1
v 8 13 -1
v 8 15 -1
v 8 24 -1
v 8 26 -1
v 9 15 -1
v 9 17 -1
v 9 22 -1
v 9 24 -1
v 10 17 -1
v 10 22 -1
v -12 6 -2
v -12 9 -2
v -11 4 -2
v -11 6 -2
v -10 3 -2
v -10 4 -2
v -9 2 -2
v -9 3 -2
v -9 8 -2
v -9 9 -2
v -7 1 -2
v -7 2 -2
v -7 7 -2
v -7 8 -2
v -6 6 -2
v -6 7 -2
v -5 0 -2
v -5 1 -2
v -5 4 -2
v -5 6 -2
v -4 3 -2
v -4 4 -2
v -3 1 -2
v -3 3 -2
v -2 1 -2
v -2 16 -2
v 2 1 -2
v 2 16 -2
v 3 1 -2
v 3 3 -2
v 4 3 -2
v 4 4 -2
v 5 0 -2
v 5 1 -2
v 5 4 -2
v 5 6 -2
v 6 6 -2
v 6 7 -2
v 7 1 -2
v 7 2 -2
v 7 7 -2
v 7 8 -2
v 9 2 -2
v 9 3 -2
v 9 8 -2
v 9 9 -2
v 10 3 -2
v 10 4 -2
v 11 4 -2
v 11 6 -2
v 12 6 -2
v 12 9 -2
v -5 0 -0
v 5 0 -0
v -5 0 -2
v 5 0 -2
v -7 1 -0
v -5 1 -0
v 5 1 -0
v 7 1 -0
v -7 1 -2
v -5 1 -2
v 5 1 -2
v 7 1 -2
v -9 2 -0
v -7 2 -0
v 7 2 -0
v 9 2 -0
v -9 2 -2
v -7 2 -2
v 7 2 -2
v 9 2 -2
v -10 3 -0
v -9 3 -0
v 9 3 -0
v 10 3 -0
v -10 3 -2
v -9 3 -2
v 9 3 -2
v 10 3 -2
v -11 4 -0
v -10 4 -0
v 10 4 -0
v 11 4 -0
v -11 4 -2
v -10 4 -2
v 10 4 -2
v 11 4 -2
v -12 6 -0
v -11 6 -0
v 11 6 -0
v 12 6 -0
v -12 6 -2
v -11 6 -2
v 11 6 -2
v 12 6 -2
v -4 11 3
v 4 11 3
v -2 11 -0
v 2 11 -0
v -4 11 -1
v -2 11 -1
v 2 11 -1
v 4 11 -1
v -6 12 3
v -4 12 3
v 4 12 3
v 6 12 3
v -6 12 -1
v -4 12 -1
v 4 12 -1
v 6 12 -1
v -8 13 3
v -6 13 3
v 6 13 3
v 8 13 3
v -8 13 -1
v -6 13 -1
v 6 13 -1
v 8 13 -1
v -9 15 3
v -8 15 3
v 8 15 3
v 9 15 3
v -9 15 -1
v -8 15 -1
v 8 15 -1
v 9 15 -1
v -10 17 3
v -9 17 3
v 9 17 3
v 10 17 3
v -10 17 -1
v -9 17 -1
v 9 17 -1
v 10 17 -1
v -8 22 3
v -7 22 3
v 7 22 3
v 8 22 3
v -8 22 2
v -7 22 2
v 7 22 2
v 8 22 2
v -7 24 3
v -6 24 3
v 6 24 3
v 7 24 3
v -7 24 2
v -6 24 2
v 6 24 2
v 7 24 2
v -6 25 3
v -4 25 3
v 4 25 3
v 6 25 3
v -6 25 2
v -4 25 2
v 4 25 2
v 6 25 2
v -4 26 3
v 4 26 3
v -4 26 2
v 4 26 2
v -3 1 -0
v -2 1 -0
v 2 1 -0
v 3 1 -0
v -3 1 -2
v -2 1 -2
v 2 1 -2
v 3 1 -2
v -4 3 -0
v -3 3 -0
v 3 3 -0
v 4 3 -0
v -4 3 -2
v -3 3 -2
v 3 3 -2
v 4 3 -2
v -5 4 -0
v -4 4 -0
v 4 4 -0
v 5 4 -0
v -5 4 -2
v -4 4 -2
v 4 4 -2
v 5 4 -2
v -6 6 -0
v -5 6 -0
v 5 6 -0
v 6 6 -0
v -6 6 -2
v -5 6 -2
v 5 6 -2
v 6 6 -2
v -7 7 -0
v -6 7 -0
v 6 7 -0
v 7 7 -0
v -7 7 -2
v -6 7 -2
v 6 7 -2
v 7 7 -2
v -9 8 -0
v -7 8 -0
v 7 8 -0
v 9 8 -0
v -9 8 -2
v -7 8 -2
v 7 8 -2
v 9 8 -2
v -12 9 -0
v -9 9 -0
v 9 9 -0
v 12 9 -0
v -12 9 -2
v -9 9 -2
v 9 9 -2
v 12 9 -2
v -4 13 3
v 4 13 3
v -4 13 2
v 4 13 2
v -6 14 3
v -4 14 3
v 4 14 3
v 6 14 3
v -6 14 2
v -4 14 2
v 4 14 2
v 6 14 2
v -7 15 3
v -6 15 3
v 6 15 3
v 7 15 3
v -7 15 2
v -6 15 2
v 6 15 2
v 7 15 2
v -2 16 -1
v 2 16 -1
v -2 16 -2
v 2 16 -2
v -8 17 3
v -7 17 3
v 7 17 3
v 8 17 3
v -8 17 2
v -7 17 2
v 7 17 2
v 8 17 2
v -10 22 3
v -9 22 3
v 9 22 3
v 10 22 3
v -10 22 -1
v -9 22 -1
v 9 22 -1
v 10 22 -1
v -9 24 3
v -8 24 3
v 8 24 3
v 9 24 3
v -9 24 -1
v -8 24 -1
v 8 24 -1
v 9 24 -1
v -8 26 3
v -6 26 3
v 6 26 3
v 8 26 3
v -8 26 -1
v -6 26 -1
v 6 26 -1
v 8 26 -1
v -6 27 3
v -4 27 3
v 4 27 3
v 6 27 3
v -6 27 -1
v -4 27 -1
v 4 27 -1
v 6 27 -1
v -4 28 3
v 4 28 3
v -4 28 -1
v 4 28 -1

# faces
f 3/4/1 2/4/1 1/4/1
f 4/4/1 2/4/1 3/4/1
f 7/4/1 6/4/1 5/4/1
f 8/4/1 6/4/1 7/4/1
f 11/4/1 10/4/1 9/4/1
f 12/4/1 10/4/1 11/4/1
f 15/2/1 14/2/1 13/2/1
f 16/2/1 14/2/1 15/2/1
f 19/4/1 18/4/1 17/4/1
f 20/4/1 18/4/1 19/4/1
f 23/2/1 22/2/1 21/2/1
f 24/2/1 22/2/1 23/2/1
f 27/2/1 26/2/1 25/2/1
f 28/2/1 26/2/1 27/2/1
f 31/2/1 30/2/1 29/2/1
f 32/2/1 30/2/1 31/2/1
f 35/2/1 34/2/1 33/2/1
f 36/2/1 34/2/1 35/2/1
f 39/4/1 38/4/1 37/4/1
f 40/4/1 38/4/1 39/4/1
f 43/2/1 42/2/1 41/2/1
f 44/2/1 42/2/1 43/2/1
f 47/2/1 46/2/1 45/2/1
f 48/2/1 46/2/1 47/2/1
f 51/4/1 50/4/1 49/4/1
f 52/4/1 50/4/1 51/4/1
f 55/2/1 54/2/1 53/2/1
f 56/2/1 54/2/1 55/2/1
f 59/2/1 58/2/1 57/2/1
f 60/2/1 58/2/1 59/2/1
f 63/4/1 62/4/1 61/4/1
f 64/4/1 62/4/1 63/4/1
f 65/4/1 62/4/1 64/4/1
f 66/4/1 62/4/1 65/4/1
f 69/4/1 68/4/1 67/4/1
f 70/4/1 68/4/1 69/4/1
f 73/4/1 72/4/1 71/4/1
f 74/4/1 72/4/1 73/4/1
f 77/2/1 76/2/1 75/2/1
f 78/2/1 76/2/1 77/2/1
f 81/2/1 80/2/1 79/2/1
f 82/2/1 80/2/1 81/2/1
f 85/4/1 84/4/1 83/4/1
f 86/4/1 84/4/1 85/4/1
f 89/4/1 88/4/1 87/4/1
f 90/4/1 88/4/1 89/4/1
f 93/2/1 92/2/1 91/2/1
f 94/2/1 92/2/1 93/2/1
f 97/2/1 96/2/1 95/2/1
f 98/2/1 96/2/1 97/2/1
f 101/4/1 100/4/1 99/4/1
f 102/4/1 100/4/1 101/4/1
f 105/2/1 104/2/1 103/2/1
f 106/2/1 104/2/1 105/2/1
f 109/2/1 108/2/1 107/2/1
f 110/2/1 108/2/1 109/2/1
f 113/2/1 112/2/1 111/2/1
f 114/2/1 112/2/1 113/2/1
f 117/4/1 116/4/1 115/4/1
f 118/4/1 116/4/1 117/4/1
f 119/4/2 120/4/2 121/4/2
f 121/4/2 120/4/2 122/4/2
f 123/2/2 124/2/2 125/2/2
f 125/2/2 124/2/2 126/2/2
f 127/4/2 128/4/2 129/4/2
f 129/4/2 128/4/2 130/4/2
f 131/2/2 132/2/2 133/2/2
f 133/2/2 132/2/2 134/2/2
f 135/2/2 136/2/2 137/2/2
f 137/2/2 136/2/2 138/2/2
f 139/4/2 140/4/2 141/4/2
f 141/4/2 140/4/2 142/4/2
f 143/2/2 144/2/2 145/2/2
f 145/2/2 144/2/2 146/2/2
f 147/2/2 148/2/2 149/2/2
f 149/2/2 148/2/2 150/2/2
f 151/4/2 152/4/2 153/4/2
f 153/4/2 152/4/2 154/4/2
f 155/4/2 156/4/2 157/4/2
f 157/4/2 156/4/2 158/4/2
f 159/2/2 160/2/2 161/2/2
f 161/2/2 160/2/2 162/2/2
f 163/2/2 164/2/2 165/2/2
f 165/2/2 164/2/2 166/2/2
f 167/4/2 168/4/2 169/4/2
f 169/4/2 168/4/2 170/4/2
f 171/4/2 172/4/2 173/4/2
f 173/4/2 172/4/2 174/4/2
f 174/4/2 172/4/2 175/4/2
f 175/4/2 172/4/2 176/4/2
f 177/2/2 178/2/2 179/2/2
f 179/2/2 178/2/2 180/2/2
f 181/2/2 182/2/2 183/2/2
f 183/2/2 182/2/2 184/2/2
f 185/4/2 186/4/2 187/4/2
f 187/4/2 186/4/2 188/4/2
f 189/2/2 190/2/2 191/2/2
f 191/2/2 190/2/2 192/2/2
f 193/2/2 194/2/2 195/2/2
f 195/2/2 194/2/2 196/2/2
f 197/4/2 198/4/2 199/4/2
f 199/4/2 198/4/2 200/4/2
f 201/2/2 202/2/2 203/2/2
f 203/2/2 202/2/2 204/2/2
f 205/2/2 206/2/2 207/2/2
f 207/2/2 206/2/2 208/2/2
f 209/4/2 210/4/2 211/4/2
f 211/4/2 210/4/2 212/4/2
f 213/2/2 214/2/2 215/2/2
f 215/2/2 214/2/2 216/2/2
f 217/2/2 218/2/2 219/2/2
f 219/2/2 218/2/2 220/2/2
f 221/4/2 222/4/2 223/4/2
f 223/4/2 222/4/2 224/4/2
f 225/2/2 226/2/2 227/2/2
f 227/2/2 226/2/2 228/2/2
f 229/4/2 230/4/2 231/4/2
f 231/4/2 230/4/2 232/4/2
f 233/4/2 234/4/2 235/4/2
f 235/4/2 234/4/2 236/4/2
f 240/2/3 238/2/3 237/2/3
f 241/2/3 238/2/3 240/2/3
f 244/2/3 240/2/3 239/2/3
f 244/2/3 242/2/3 241/2/3
f 244/2/3 241/2/3 240/2/3
f 245/2/3 242/2/3 244/2/3
f 246/2/3 242/2/3 245/2/3
f 247/2/3 242/2/3 246/2/3
f 249/2/3 244/2/3 243/2/3
f 249/2/3 245/2/3 244/2/3
f 250/2/3 245/2/3 249/2/3
f 251/2/3 248/2/3 247/2/3
f 251/2/3 247/2/3 246/2/3
f 252/2/3 248/2/3 251/2/3
f 254/2/3 249/2/3 243/2/3
f 255/2/3 249/2/3 254/2/3
f 256/2/3 249/2/3 255/2/3
f 257/2/3 248/2/3 252/2/3
f 258/2/3 248/2/3 257/2/3
f 259/2/3 248/2/3 258/2/3
f 262/2/3 254/2/3 253/2/3
f 262/2/3 255/2/3 254/2/3
f 263/2/3 255/2/3 262/2/3
f 264/2/3 255/2/3 263/2/3
f 265/2/3 260/2/3 259/2/3
f 265/2/3 259/2/3 258/2/3
f 266/2/3 260/2/3 265/2/3
f 267/2/3 260/2/3 266/2/3
f 269/2/3 263/2/3 262/2/3
f 269/2/3 262/2/3 261/2/3
f 270/2/3 263/2/3 269/2/3
f 271/2/3 263/2/3 270/2/3
f 274/2/3 268/2/3 267/2/3
f 274/2/3 267/2/3 266/2/3
f 275/2/3 268/2/3 274/2/3
f 276/2/3 268/2/3 275/2/3
f 277/2/3 272/2/3 271/2/3
f 277/2/3 271/2/3 270/2/3
f 278/2/3 272/2/3 277/2/3
f 279/2/3 272/2/3 278/2/3
f 282/2/3 275/2/3 274/2/3
f 282/2/3 274/2/3 273/2/3
f 283/2/3 275/2/3 282/2/3
f 284/2/3 275/2/3 283/2/3
f 285/2/3 280/2/3 279/2/3
f 285/2/3 279/2/3 278/2/3
f 288/2/3 283/2/3 282/2/3
f 288/2/3 282/2/3 281/2/3
f 289/2/3 286/2/3 285/2/3
f 289/2/3 285/2/3 278/2/3
f 290/2/3 286/2/3 289/2/3
f 291/2/3 286/2/3 290/2/3
f 292/2/3 288/2/3 287/2/3
f 293/2/3 283/2/3 288/2/3
f 293/2/3 288/2/3 292/2/3
f 294/2/3 283/2/3 293/2/3
f 295/2/3 291/2/3 290/2/3
f 295/2/3 292/2/3 291/2/3
f 295/2/3 293/2/3 292/2/3
f 296/2/3 293/2/3 295/2/3
f 297/2/3 293/2/3 296/2/3
f 298/2/3 293/2/3 297/2/3
f 299/2/3 297/2/3 296/2/3
f 300/2/3 297/2/3 299/2/3
f 304/1/3 302/1/3 301/1/3
f 305/1/3 302/1/3 304/1/3
f 308/1/3 304/1/3 303/1/3
f 308/1/3 306/1/3 305/1/3
f 308/1/3 305/1/3 304/1/3
f 309/1/3 306/1/3 308/1/3
f 310/1/3 306/1/3 309/1/3
f 311/1/3 306/1/3 310/1/3
f 313/1/3 308/1/3 307/1/3
f 313/1/3 309/1/3 308/1/3
f 314/3/3 310/3/3 309/3/3
f 314/1/3 309/1/3 313/1/3
f 315/1/3 312/1/3 311/1/3
f 315/3/3 310/3/3 314/3/3
f 315/1/3 311/1/3 310/1/3
f 316/1/3 312/1/3 315/1/3
f 318/1/3 313/1/3 307/1/3
f 319/1/3 313/1/3 318/1/3
f 320/3/3 314/3/3 313/3/3
f 320/1/3 313/1/3 319/1/3
f 320/3/3 315/3/3 314/3/3
f 320/3/3 316/3/3 315/3/3
f 321/1/3 312/1/3 316/1/3
f 321/3/3 316/3/3 320/3/3
f 322/1/3 312/1/3 321/1/3
f 323/1/3 312/1/3 322/1/3
f 325/3/3 320/3/3 319/3/3
f 325/3/3 321/3/3 320/3/3
f 325/3/3 322/3/3 321/3/3
f 326/3/3 322/3/3 325/3/3
f 327/3/3 325/3/3 319/3/3
f 327/5/3 326/5/3 325/5/3
f 328/3/3 322/3/3 326/3/3
f 328/5/3 326/5/3 327/5/3
f 329/3/3 327/3/3 319/3/3
f 329/3/3 328/3/3 327/3/3
f 330/3/3 322/3/3 328/3/3
f 330/3/3 328/3/3 329/3/3
f 331/3/3 329/3/3 319/3/3
f 331/5/3 330/5/3 329/5/3
f 332/3/3 322/3/3 330/3/3
f 332/5/3 330/5/3 331/5/3
f 333/1/3 319/1/3 318/1/3
f 333/1/3 318/1/3 317/1/3
f 334/1/3 319/1/3 333/1/3
f 335/3/3 332/3/3 331/3/3
f 335/1/3 319/1/3 334/1/3
f 335/3/3 331/3/3 319/3/3
f 336/3/3 332/3/3 335/3/3
f 337/3/3 322/3/3 332/3/3
f 337/3/3 332/3/3 336/3/3
f 338/1/3 324/1/3 323/1/3
f 338/3/3 322/3/3 337/3/3
f 338/1/3 323/1/3 322/1/3
f 339/1/3 324/1/3 338/1/3
f 340/1/3 324/1/3 339/1/3
f 341/1/3 336/1/3 335/1/3
f 341/3/3 337/3/3 336/3/3
f 341/1/3 335/1/3 334/1/3
f 342/3/3 337/3/3 341/3/3
f 343/3/3 337/3/3 342/3/3
f 344/1/3 339/1/3 338/1/3
f 344/3/3 337/3/3 343/3/3
f 344/1/3 338/1/3 337/1/3
f 345/1/3 342/1/3 341/1/3
f 345/1/3 341/1/3 334/1/3
f 346/1/3 342/1/3 345/1/3
f 347/3/3 343/3/3 342/3/3
f 347/1/3 342/1/3 346/1/3
f 348/1/3 344/1/3 343/1/3
f 348/3/3 343/3/3 347/3/3
f 349/1/3 339/1/3 344/1/3
f 349/1/3 344/1/3 348/1/3
f 350/1/3 339/1/3 349/1/3
f 351/1/3 348/1/3 347/1/3
f 351/1/3 349/1/3 348/1/3
f 351/1/3 347/1/3 346/1/3
f 352/1/3 349/1/3 351/1/3
f 353/1/3 349/1/3 352/1/3
f 354/1/3 349/1/3 353/1/3
f 355/1/3 353/1/3 352/1/3
f 356/1/3 353/1/3 355/1/3
f 360/4/3 358/4/3 357/4/3
f 362/4/3 360/4/3 359/4/3
f 364/4/3 362/4/3 361/4/3
f 365/4/3 358/4/3 360/4/3
f 365/4/3 360/4/3 362/4/3
f 365/4/3 362/4/3 364/4/3
f 366/4/3 358/4/3 365/4/3
f 368/4/3 364/4/3 363/4/3
f 368/4/3 365/4/3 364/4/3
f 369/4/3 365/4/3 368/4/3
f 370/4/3 365/4/3 369/4/3
f 371/4/3 368/4/3 367/4/3
f 371/4/3 369/4/3 368/4/3
f 372/4/3 369/4/3 371/4/3
f 374/4/3 371/4/3 367/4/3
f 375/4/3 371/4/3 374/4/3
f 376/4/3 371/4/3 375/4/3
f 377/4/3 374/4/3 373/4/3
f 377/4/3 375/4/3 374/4/3
f 378/4/3 375/4/3 377/4/3
f 379/4/3 377/4/3 373/4/3
f 380/4/3 377/4/3 379/4/3
f 381/4/3 379/4/3 373/4/3
f 383/4/3 381/4/3 373/4/3
f 383/4/3 382/4/3 381/4/3
f 384/4/3 382/4/3 383/4/3
f 385/4/3 383/4/3 373/4/3
f 387/4/3 386/4/3 385/4/3
f 389/4/3 385/4/3 373/4/3
f 389/4/3 388/4/3 387/4/3
f 389/4/3 387/4/3 385/4/3
f 390/4/3 388/4/3 389/4/3
f 391/4/3 388/4/3 390/4/3
f 393/4/3 392/4/3 391/4/3
f 393/4/3 391/4/3 390/4/3
f 395/4/3 393/4/3 390/4/3
f 395/4/3 394/4/3 393/4/3
f 396/4/3 394/4/3 395/4/3
f 397/4/3 394/4/3 396/4/3
f 399/4/3 398/4/3 397/4/3
f 399/4/3 397/4/3 396/4/3
f 400/4/3 398/4/3 399/4/3
f 401/4/3 398/4/3 400/4/3
f 403/4/3 402/4/3 401/4/3
f 403/4/3 401/4/3 400/4/3
f 404/4/3 402/4/3 403/4/3
f 405/4/3 402/4/3 404/4/3
f 406/4/3 402/4/3 405/4/3
f 407/4/3 402/4/3 406/4/3
f 408/4/3 402/4/3 407/4/3
f 409/2/4 410/2/4 412/2/4
f 412/2/4 410/2/4 413/2/4
f 411/2/4 412/2/4 416/2/4
f 413/2/4 414/2/4 416/2/4
f 412/2/4 413/2/4 416/2/4
f 416/2/4 414/2/4 417/2/4
f 415/2/4 416/2/4 420/2/4
f 417/2/4 418/2/4 420/2/4
f 416/2/4 417/2/4 420/2/4
f 420/2/4 418/2/4 421/2/4
f 419/2/4 420/2/4 424/2/4
f 421/2/4 422/2/4 424/2/4
f 420/2/4 421/2/4 424/2/4
f 424/2/4 422/2/4 425/2/4
f 423/2/4 424/2/4 427/2/4
f 425/2/4 426/2/4 427/2/4
f 424/2/4 425/2/4 427/2/4
f 427/2/4 426/2/4 428/2/4
f 428/2/4 426/2/4 430/2/4
f 429/2/4 430/2/4 431/2/4
f 431/2/4 430/2/4 432/2/4
f 430/2/4 426/2/4 433/2/4
f 432/2/4 430/2/4 433/2/4
f 433/2/4 426/2/4 434/2/4
f 432/2/4 433/2/4 435/2/4
f 435/2/4 433/2/4 436/2/4
f 436/2/4 433/2/4 437/2/4
f 437/2/4 433/2/4 438/2/4
f 436/2/4 437/2/4 439/2/4
f 439/2/4 437/2/4 440/2/4
f 440/2/4 437/2/4 441/2/4
f 441/2/4 437/2/4 442/2/4
f 440/2/4 441/2/4 443/2/4
f 443/2/4 441/2/4 444/2/4
f 444/2/4 441/2/4 445/2/4
f 445/2/4 441/2/4 446/2/4
f 444/2/4 445/2/4 447/2/4
f 447/2/4 445/2/4 448/2/4
f 449/4/4 450/4/4 452/4/4
f 451/4/4 452/4/4 454/4/4
f 453/4/4 454/4/4 456/4/4
f 452/4/4 450/4/4 457/4/4
f 454/4/4 452/4/4 457/4/4
f 456/4/4 454/4/4 457/4/4
f 457/4/4 450/4/4 458/4/4
f 455/4/4 456/4/4 460/4/4
f 456/4/4 457/4/4 460/4/4
f 460/4/4 457/4/4 461/4/4
f 461/4/4 457/4/4 462/4/4
f 459/4/4 460/4/4 463/4/4
f 460/4/4 461/4/4 463/4/4
f 463/4/4 461/4/4 464/4/4
f 459/4/4 463/4/4 466/4/4
f 466/4/4 463/4/4 467/4/4
f 467/4/4 463/4/4 468/4/4
f 465/4/4 466/4/4 469/4/4
f 466/4/4 467/4/4 469/4/4
f 469/4/4 467/4/4 470/4/4
f 465/4/4 469/4/4 471/4/4
f 471/4/4 469/4/4 472/4/4
f 465/4/4 471/4/4 473/4/4
f 465/4/4 473/4/4 475/4/4
f 473/4/4 474/4/4 475/4/4
f 475/4/4 474/4/4 476/4/4
f 465/4/4 475/4/4 477/4/4
f 477/4/4 478/4/4 479/4/4
f 465/4/4 477/4/4 481/4/4
f 479/4/4 480/4/4 481/4/4
f 477/4/4 479/4/4 481/4/4
f 481/4/4 480/4/4 482/4/4
f 482/4/4 480/4/4 483/4/4
f 483/4/4 484/4/4 485/4/4
f 482/4/4 483/4/4 485/4/4
f 482/4/4 485/4/4 487/4/4
f 485/4/4 486/4/4 487/4/4
f 487/4/4 486/4/4 488/4/4
f 488/4/4 486/4/4 489/4/4
f 489/4/4 490/4/4 491/4/4
f 488/4/4 489/4/4 491/4/4
f 491/4/4 490/4/4 492/4/4
f 492/4/4 490/4/4 493/4/4
f 493/4/4 494/4/4 495/4/4
f 492/4/4 493/4/4 495/4/4
f 495/4/4 494/4/4 496/4/4
f 496/4/4 494/4/4 497/4/4
f 497/4/4 494/4/4 498/4/4
f 498/4/4 494/4/4 499/4/4
f 499/4/4 494/4/4 500/4/4
f 503/4/5 502/4/5 501/4/5
f 504/4/5 502/4/5 503/4/5
f 509/4/5 506/4/5 505/4/5
f 510/4/5 506/4/5 509/4/5
f 511/4/5 508/4/5 507/4/5
f 512/4/5 508/4/5 511/4/5
f 517/4/5 514/4/5 513/4/5
f 518/4/5 514/4/5 517/4/5
f 519/4/5 516/4/5 515/4/5
f 520/4/5 516/4/5 519/4/5
f 525/4/5 522/4/5 521/4/5
f 526/4/5 522/4/5 525/4/5
f 527/4/5 524/4/5 523/4/5
f 528/4/5 524/4/5 527/4/5
f 533/4/5 530/4/5 529/4/5
f 534/4/5 530/4/5 533/4/5
f 535/4/5 532/4/5 531/4/5
f 536/4/5 532/4/5 535/4/5
f 541/4/5 538/4/5 537/4/5
f 542/4/5 538/4/5 541/4/5
f 543/4/5 540/4/5 539/4/5
f 544/4/5 540/4/5 543/4/5
f 547/2/5 546/2/5 545/2/5
f 548/2/5 546/2/5 547/2/5
f 549/2/5 547/2/5 545/2/5
f 550/2/5 547/2/5 549/2/5
f 551/2/5 546/2/5 548/2/5
f 552/2/5 546/2/5 551/2/5
f 557/2/5 554/2/5 553/2/5
f 558/2/5 554/2/5 557/2/5
f 559/2/5 556/2/5 555/2/5
f 560/2/5 556/2/5 559/2/5
f 565/2/5 562/2/5 561/2/5
f 566/2/5 562/2/5 565/2/5
f 567/2/5 564/2/5 563/2/5
f 568/2/5 564/2/5 567/2/5
f 573/2/5 570/2/5 569/2/5
f 574/2/5 570/2/5 573/2/5
f 575/2/5 572/2/5 571/2/5
f 576/2/5 572/2/5 575/2/5
f 581/2/5 578/2/5 577/2/5
f 582/2/5 578/2/5 581/2/5
f 583/2/5 580/2/5 579/2/5
f 584/2/5 580/2/5 583/2/5
f 589/2/5 586/2/5 585/2/5
f 590/2/5 586/2/5 589/2/5
f 591/2/5 588/2/5 587/2/5
f 592/2/5 588/2/5 591/2/5
f 597/2/5 594/2/5 593/2/5
f 598/2/5 594/2/5 597/2/5
f 599/2/5 596/2/5 595/2/5
f 600/2/5 596/2/5 599/2/5
f 605/2/5 602/2/5 601/2/5
f 606/2/5 602/2/5 605/2/5
f 607/2/5 604/2/5 603/2/5
f 608/2/5 604/2/5 607/2/5
f 611/2/5 610/2/5 609/2/5
f 612/2/5 610/2/5 611/2/5
f 613/4/6 614/4/6 617/4/6
f 617/4/6 614/4/6 618/4/6
f 615/4/6 616/4/6 619/4/6
f 619/4/6 616/4/6 620/4/6
f 621/4/6 622/4/6 625/4/6
f 625/4/6 622/4/6 626/4/6
f 623/4/6 624/4/6 627/4/6
f 627/4/6 624/4/6 628/4/6
f 629/4/6 630/4/6 633/4/6
f 633/4/6 630/4/6 634/4/6
f 631/4/6 632/4/6 635/4/6
f 635/4/6 632/4/6 636/4/6
f 637/4/6 638/4/6 641/4/6
f 641/4/6 638/4/6 642/4/6
f 639/4/6 640/4/6 643/4/6
f 643/4/6 640/4/6 644/4/6
f 645/4/6 646/4/6 649/4/6
f 649/4/6 646/4/6 650/4/6
f 647/4/6 648/4/6 651/4/6
f 651/4/6 648/4/6 652/4/6
f 653/4/6 654/4/6 657/4/6
f 657/4/6 654/4/6 658/4/6
f 655/4/6 656/4/6 659/4/6
f 659/4/6 656/4/6 660/4/6
f 661/4/6 662/4/6 665/4/6
f 665/4/6 662/4/6 666/4/6
f 663/4/6 664/4/6 667/4/6
f 667/4/6 664/4/6 668/4/6
f 669/2/6 670/2/6 671/2/6
f 671/2/6 670/2/6 672/2/6
f 673/2/6 674/2/6 677/2/6
f 677/2/6 674/2/6 678/2/6
f 675/2/6 676/2/6 679/2/6
f 679/2/6 676/2/6 680/2/6
f 681/2/6 682/2/6 685/2/6
f 685/2/6 682/2/6 686/2/6
f 683/2/6 684/2/6 687/2/6
f 687/2/6 684/2/6 688/2/6
f 689/4/6 690/4/6 691/4/6
f 691/4/6 690/4/6 692/4/6
f 693/2/6 694/2/6 697/2/6
f 697/2/6 694/2/6 698/2/6
f 695/2/6 696/2/6 699/2/6
f 699/2/6 696/2/6 700/2/6
f 701/2/6 702/2/6 705/2/6
f 705/2/6 702/2/6 706/2/6
f 703/2/6 704/2/6 707/2/6
f 707/2/6 704/2/6 708/2/6
f 709/2/6 710/2/6 713/2/6
f 713/2/6 710/2/6 714/2/6
f 711/2/6 712/2/6 715/2/6
f 715/2/6 712/2/6 716/2/6
f 717/2/6 718/2/6 721/2/6
f 721/2/6 718/2/6 722/2/6
f 719/2/6 720/2/6 723/2/6
f 723/2/6 720/2/6 724/2/6
f 725/2/6 726/2/6 729/2/6
f 729/2/6 726/2/6 730/2/6
f 727/2/6 728/2/6 731/2/6
f 731/2/6 728/2/6 732/2/6
f 733/2/6 734/2/6 735/2/6
f 735/2/6 734/2/6 736/2/6
