# MagicaVoxel @ Ephtracy

# group
g FlorDeHielo

# material
mtllib FlorDeHielo.mtl
usemtl palette

# normals
vn -1 0 0
vn 1 0 0
vn 0 0 1
vn 0 0 -1
vn 0 -1 0
vn 0 1 0

# texcoords
vt 0.0175781 0.5
vt 0.0917969 0.5
vt 0.173828 0.5
vt 0.705078 0.5
vt 0.775391 0.5
vt 0.880859 0.5
vt 0.955078 0.5

# verts
v -12 6 -0
v -12 6 -2
v -12 9 -0
v -12 9 -2
v -11 4 -0
v -11 4 -2
v -11 6 -0
v -11 6 -2
v -10 3 -0
v -10 3 -2
v -10 4 -0
v -10 4 -2
v -10 17 3
v -10 17 -1
v -10 22 3
v -10 22 -1
v -9 2 -0
v -9 2 -2
v -9 3 -0
v -9 3 -2
v -9 15 3
v -9 15 -1
v -9 17 3
v -9 17 -1
v -9 22 3
v -9 22 -1
v -9 24 3
v -9 24 -1
v -8 13 3
v -8 13 -1
v -8 15 3
v -8 15 -1
v -8 24 3
v -8 24 -1
v -8 26 3
v -8 26 -1
v -7 1 -0
v -7 1 -2
v -7 2 -0
v -7 2 -2
v -6 12 3
v -6 12 -1
v -6 13 3
v -6 13 -1
v -6 26 3
v -6 26 -1
v -6 27 3
v -6 27 -1
v -5 0 -0
v -5 0 -2
v -5 1 -0
v -5 1 -2
v -4 11 3
v -4 11 -1
v -4 12 3
v -4 12 -1
v -4 27 3
v -4 27 -1
v -4 28 3
v -4 28 -1
v -2 1 -0
v -2 1 -2
v -2 11 -0
v -2 11 -1
v -2 16 -1
v -2 16 -2
v 3 1 -0
v 3 1 -2
v 3 3 -0
v 3 3 -2
v 4 3 -0
v 4 3 -2
v 4 4 -0
v 4 4 -2
v 4 13 3
v 4 13 2
v 4 14 3
v 4 14 2
v 4 25 3
v 4 25 2
v 4 26 3
v 4 26 2
v 5 4 -0
v 5 4 -2
v 5 6 -0
v 5 6 -2
v 6 6 -0
v 6 6 -2
v 6 7 -0
v 6 7 -2
v 6 14 3
v 6 14 2
v 6 15 3
v 6 15 2
v 6 24 3
v 6 24 2
v 6 25 3
v 6 25 2
v 7 7 -0
v 7 7 -2
v 7 8 -0
v 7 8 -2
v 7 15 3
v 7 15 2
v 7 17 3
v 7 17 2
v 7 22 3
v 7 22 2
v 7 24 3
v 7 24 2
v 8 17 3
v 8 17 2
v 8 22 3
v 8 22 2
v 9 8 -0
v 9 8 -2
v 9 9 -0
v 9 9 -2
v -9 8 -0
v -9 8 -2
v -9 9 -0
v -9 9 -2
v -8 17 3
v -8 17 2
v -8 22 3
v -8 22 2
v -7 7 -0
v -7 7 -2
v -7 8 -0
v -7 8 -2
v -7 15 3
v -7 15 2
v -7 17 3
v -7 17 2
v -7 22 3
v -7 22 2
v -7 24 3
v -7 24 2
v -6 6 -0
v -6 6 -2
v -6 7 -0
v -6 7 -2
v -6 14 3
v -6 14 2
v -6 15 3
v -6 15 2
v -6 24 3
v -6 24 2
v -6 25 3
v -6 25 2
v -5 4 -0
v -5 4 -2
v -5 6 -0
v -5 6 -2
v -4 3 -0
v -4 3 -2
v -4 4 -0
v -4 4 -2
v -4 13 3
v -4 13 2
v -4 14 3
v -4 14 2
v -4 25 3
v -4 25 2
v -4 26 3
v -4 26 2
v -3 1 -0
v -3 1 -2
v -3 3 -0
v -3 3 -2
v 2 1 -0
v 2 1 -2
v 2 11 -0
v 2 11 -1
v 2 16 -1
v 2 16 -2
v 4 11 3
v 4 11 -1
v 4 12 3
v 4 12 -1
v 4 27 3
v 4 27 -1
v 4 28 3
v 4 28 -1
v 5 0 -0
v 5 0 -2
v 5 1 -0
v 5 1 -2
v 6 12 3
v 6 12 -1
v 6 13 3
v 6 13 -1
v 6 26 3
v 6 26 -1
v 6 27 3
v 6 27 -1
v 7 1 -0
v 7 1 -2
v 7 2 -0
v 7 2 -2
v 8 13 3
v 8 13 -1
v 8 15 3
v 8 15 -1
v 8 24 3
v 8 24 -1
v 8 26 3
v 8 26 -1
v 9 2 -0
v 9 2 -2
v 9 3 -0
v 9 3 -2
v 9 15 3
v 9 15 -1
v 9 17 3
v 9 17 -1
v 9 22 3
v 9 22 -1
v 9 24 3
v 9 24 -1
v 10 3 -0
v 10 3 -2
v 10 4 -0
v 10 4 -2
v 10 17 3
v 10 17 -1
v 10 22 3
v 10 22 -1
v 11 4 -0
v 11 4 -2
v 11 6 -0
v 11 6 -2
v 12 6 -0
v 12 6 -2
v 12 9 -0
v 12 9 -2
v -10 17 3
v -10 22 3
v -9 15 3
v -9 17 3
v -9 22 3
v -9 24 3
v -8 13 3
v -8 15 3
v -8 17 3
v -8 22 3
v -8 24 3
v -8 26 3
v -7 15 3
v -7 17 3
v -7 22 3
v -7 24 3
v -6 12 3
v -6 13 3
v -6 14 3
v -6 15 3
v -6 24 3
v -6 25 3
v -6 26 3
v -6 27 3
v -4 11 3
v -4 12 3
v -4 13 3
v -4 14 3
v -4 25 3
v -4 26 3
v -4 27 3
v -4 28 3
v 4 11 3
v 4 12 3
v 4 13 3
v 4 14 3
v 4 25 3
v 4 26 3
v 4 27 3
v 4 28 3
v 6 12 3
v 6 13 3
v 6 14 3
v 6 15 3
v 6 24 3
v 6 25 3
v 6 26 3
v 6 27 3
v 7 15 3
v 7 17 3
v 7 22 3
v 7 24 3
v 8 13 3
v 8 15 3
v 8 17 3
v 8 22 3
v 8 24 3
v 8 26 3
v 9 15 3
v 9 17 3
v 9 22 3
v 9 24 3
v 10 17 3
v 10 22 3
v -8 17 2
v -8 22 2
v -7 15 2
v -7 17 2
v -7 22 2
v -7 24 2
v -6 14 2
v -6 15 2
v -6 17 2
v -6 22 2
v -6 24 2
v -6 25 2
v -5 16 2
v -5 17 2
v -5 22 2
v -5 23 2
v -4 13 2
v -4 14 2
v -4 15 2
v -4 16 2
v -4 23 2
v -4 24 2
v -4 25 2
v -4 26 2
v -3 19 2
v -3 22 2
v -2 19 2
v -2 22 2
v 2 19 2
v 2 22 2
v 3 19 2
v 3 22 2
v 4 13 2
v 4 14 2
v 4 15 2
v 4 16 2
v 4 23 2
v 4 24 2
v 4 25 2
v 4 26 2
v 5 16 2
v 5 17 2
v 5 22 2
v 5 23 2
v 6 14 2
v 6 15 2
v 6 17 2
v 6 22 2
v 6 24 2
v 6 25 2
v 7 15 2
v 7 17 2
v 7 22 2
v 7 24 2
v 8 17 2
v 8 22 2
v -12 6 -0
v -12 9 -0
v -11 4 -0
v -11 6 -0
v -10 3 -0
v -10 4 -0
v -9 2 -0
v -9 3 -0
v -9 8 -0
v -9 9 -0
v -7 1 -0
v -7 2 -0
v -7 7 -0
v -7 8 -0
v -6 6 -0
v -6 7 -0
v -5 0 -0
v -5 1 -0
v -5 4 -0
v -5 6 -0
v -4 3 -0
v -4 4 -0
v -3 1 -0
v -3 3 -0
v -2 1 -0
v -2 11 -0
v 2 1 -0
v 2 11 -0
v 3 1 -0
v 3 3 -0
v 4 3 -0
v 4 4 -0
v 5 0 -0
v 5 1 -0
v 5 4 -0
v 5 6 -0
v 6 6 -0
v 6 7 -0
v 7 1 -0
v 7 2 -0
v 7 7 -0
v 7 8 -0
v 9 2 -0
v 9 3 -0
v 9 8 -0
v 9 9 -0
v 10 3 -0
v 10 4 -0
v 11 4 -0
v 11 6 -0
v 12 6 -0
v 12 9 -0
v -10 17 -1
v -10 22 -1
v -9 15 -1
v -9 17 -1
v -9 22 -1
v -9 24 -1
v -8 13 -1
v -8 15 -1
v -8 24 -1
v -8 26 -1
v -6 12 -1
v -6 13 -1
v -6 26 -1
v -6 27 -1
v -4 11 -1
v -4 12 -1
v -4 27 -1
v -4 28 -1
v -2 11 -1
v -2 16 -1
v 2 11 -1
v 2 16 -1
v 4 11 -1
v 4 12 -1
v 4 27 -1
v 4 28 -1
v 6 12 -1
v 6 13 -1
v 6 26 -1
v 6 27 -1
v 8 13 -1
v 8 15 -1
v 8 24 -1
v 8 26 -1
v 9 15 -1
v 9 17 -1
v 9 22 -1
v 9 24 -1
v 10 17 -1
v 10 22 -1
v -12 6 -2
v -12 9 -2
v -11 4 -2
v -11 6 -2
v -10 3 -2
v -10 4 -2
v -9 2 -2
v -9 3 -2
v -9 8 -2
v -9 9 -2
v -7 1 -2
v -7 2 -2
v -7 7 -2
v -7 8 -2
v -6 6 -2
v -6 7 -2
v -5 0 -2
v -5 1 -2
v -5 4 -2
v -5 6 -2
v -4 3 -2
v -4 4 -2
v -3 1 -2
v -3 3 -2
v -2 1 -2
v -2 16 -2
v 2 1 -2
v 2 16 -2
v 3 1 -2
v 3 3 -2
v 4 3 -2
v 4 4 -2
v 5 0 -2
v 5 1 -2
v 5 4 -2
v 5 6 -2
v 6 6 -2
v 6 7 -2
v 7 1 -2
v 7 2 -2
v 7 7 -2
v 7 8 -2
v 9 2 -2
v 9 3 -2
v 9 8 -2
v 9 9 -2
v 10 3 -2
v 10 4 -2
v 11 4 -2
v 11 6 -2
v 12 6 -2
v 12 9 -2
v -5 0 -0
v 5 0 -0
v -5 0 -2
v 5 0 -2
v -7 1 -0
v -5 1 -0
v 5 1 -0
v 7 1 -0
v -7 1 -2
v -5 1 -2
v 5 1 -2
v 7 1 -2
v -9 2 -0
v -7 2 -0
v 7 2 -0
v 9 2 -0
v -9 2 -2
v -7 2 -2
v 7 2 -2
v 9 2 -2
v -10 3 -0
v -9 3 -0
v 9 3 -0
v 10 3 -0
v -10 3 -2
v -9 3 -2
v 9 3 -2
v 10 3 -2
v -11 4 -0
v -10 4 -0
v 10 4 -0
v 11 4 -0
v -11 4 -2
v -10 4 -2
v 10 4 -2
v 11 4 -2
v -12 6 -0
v -11 6 -0
v 11 6 -0
v 12 6 -0
v -12 6 -2
v -11 6 -2
v 11 6 -2
v 12 6 -2
v -4 11 3
v 4 11 3
v -2 11 -0
v 2 11 -0
v -4 11 -1
v -2 11 -1
v 2 11 -1
v 4 11 -1
v -6 12 3
v -4 12 3
v 4 12 3
v 6 12 3
v -6 12 -1
v -4 12 -1
v 4 12 -1
v 6 12 -1
v -8 13 3
v -6 13 3
v 6 13 3
v 8 13 3
v -8 13 -1
v -6 13 -1
v 6 13 -1
v 8 13 -1
v -9 15 3
v -8 15 3
v 8 15 3
v 9 15 3
v -9 15 -1
v -8 15 -1
v 8 15 -1
v 9 15 -1
v -10 17 3
v -9 17 3
v 9 17 3
v 10 17 3
v -10 17 -1
v -9 17 -1
v 9 17 -1
v 10 17 -1
v -8 22 3
v -7 22 3
v 7 22 3
v 8 22 3
v -8 22 2
v -7 22 2
v 7 22 2
v 8 22 2
v -7 24 3
v -6 24 3
v 6 24 3
v 7 24 3
v -7 24 2
v -6 24 2
v 6 24 2
v 7 24 2
v -6 25 3
v -4 25 3
v 4 25 3
v 6 25 3
v -6 25 2
v -4 25 2
v 4 25 2
v 6 25 2
v -4 26 3
v 4 26 3
v -4 26 2
v 4 26 2
v -3 1 -0
v -2 1 -0
v 2 1 -0
v 3 1 -0
v -3 1 -2
v -2 1 -2
v 2 1 -2
v 3 1 -2
v -4 3 -0
v -3 3 -0
v 3 3 -0
v 4 3 -0
v -4 3 -2
v -3 3 -2
v 3 3 -2
v 4 3 -2
v -5 4 -0
v -4 4 -0
v 4 4 -0
v 5 4 -0
v -5 4 -2
v -4 4 -2
v 4 4 -2
v 5 4 -2
v -6 6 -0
v -5 6 -0
v 5 6 -0
v 6 6 -0
v -6 6 -2
v -5 6 -2
v 5 6 -2
v 6 6 -2
v -7 7 -0
v -6 7 -0
v 6 7 -0
v 7 7 -0
v -7 7 -2
v -6 7 -2
v 6 7 -2
v 7 7 -2
v -9 8 -0
v -7 8 -0
v 7 8 -0
v 9 8 -0
v -9 8 -2
v -7 8 -2
v 7 8 -2
v 9 8 -2
v -12 9 -0
v -9 9 -0
v 9 9 -0
v 12 9 -0
v -12 9 -2
v -9 9 -2
v 9 9 -2
v 12 9 -2
v -4 13 3
v 4 13 3
v -4 13 2
v 4 13 2
v -6 14 3
v -4 14 3
v 4 14 3
v 6 14 3
v -6 14 2
v -4 14 2
v 4 14 2
v 6 14 2
v -7 15 3
v -6 15 3
v 6 15 3
v 7 15 3
v -7 15 2
v -6 15 2
v 6 15 2
v 7 15 2
v -2 16 -1
v 2 16 -1
v -2 16 -2
v 2 16 -2
v -8 17 3
v -7 17 3
v 7 17 3
v 8 17 3
v -8 17 2
v -7 17 2
v 7 17 2
v 8 17 2
v -10 22 3
v -9 22 3
v 9 22 3
v 10 22 3
v -10 22 -1
v -9 22 -1
v 9 22 -1
v 10 22 -1
v -9 24 3
v -8 24 3
v 8 24 3
v 9 24 3
v -9 24 -1
v -8 24 -1
v 8 24 -1
v 9 24 -1
v -8 26 3
v -6 26 3
v 6 26 3
v 8 26 3
v -8 26 -1
v -6 26 -1
v 6 26 -1
v 8 26 -1
v -6 27 3
v -4 27 3
v 4 27 3
v 6 27 3
v -6 27 -1
v -4 27 -1
v 4 27 -1
v 6 27 -1
v -4 28 3
v 4 28 3
v -4 28 -1
v 4 28 -1

# faces
f 3/6/1 2/6/1 1/6/1
f 4/6/1 2/6/1 3/6/1
f 7/6/1 6/6/1 5/6/1
f 8/6/1 6/6/1 7/6/1
f 11/6/1 10/6/1 9/6/1
f 12/6/1 10/6/1 11/6/1
f 15/5/1 14/5/1 13/5/1
f 16/5/1 14/5/1 15/5/1
f 19/6/1 18/6/1 17/6/1
f 20/6/1 18/6/1 19/6/1
f 23/5/1 22/5/1 21/5/1
f 24/5/1 22/5/1 23/5/1
f 27/5/1 26/5/1 25/5/1
f 28/5/1 26/5/1 27/5/1
f 31/5/1 30/5/1 29/5/1
f 32/5/1 30/5/1 31/5/1
f 35/5/1 34/5/1 33/5/1
f 36/5/1 34/5/1 35/5/1
f 39/6/1 38/6/1 37/6/1
f 40/6/1 38/6/1 39/6/1
f 43/5/1 42/5/1 41/5/1
f 44/5/1 42/5/1 43/5/1
f 47/5/1 46/5/1 45/5/1
f 48/5/1 46/5/1 47/5/1
f 51/6/1 50/6/1 49/6/1
f 52/6/1 50/6/1 51/6/1
f 55/5/1 54/5/1 53/5/1
f 56/5/1 54/5/1 55/5/1
f 59/5/1 58/5/1 57/5/1
f 60/5/1 58/5/1 59/5/1
f 63/6/1 62/6/1 61/6/1
f 64/6/1 62/6/1 63/6/1
f 65/6/1 62/6/1 64/6/1
f 66/6/1 62/6/1 65/6/1
f 69/6/1 68/6/1 67/6/1
f 70/6/1 68/6/1 69/6/1
f 73/6/1 72/6/1 71/6/1
f 74/6/1 72/6/1 73/6/1
f 77/5/1 76/5/1 75/5/1
f 78/5/1 76/5/1 77/5/1
f 81/5/1 80/5/1 79/5/1
f 82/5/1 80/5/1 81/5/1
f 85/6/1 84/6/1 83/6/1
f 86/6/1 84/6/1 85/6/1
f 89/6/1 88/6/1 87/6/1
f 90/6/1 88/6/1 89/6/1
f 93/5/1 92/5/1 91/5/1
f 94/5/1 92/5/1 93/5/1
f 97/5/1 96/5/1 95/5/1
f 98/5/1 96/5/1 97/5/1
f 101/6/1 100/6/1 99/6/1
f 102/6/1 100/6/1 101/6/1
f 105/5/1 104/5/1 103/5/1
f 106/5/1 104/5/1 105/5/1
f 109/5/1 108/5/1 107/5/1
f 110/5/1 108/5/1 109/5/1
f 113/5/1 112/5/1 111/5/1
f 114/5/1 112/5/1 113/5/1
f 117/6/1 116/6/1 115/6/1
f 118/6/1 116/6/1 117/6/1
f 119/6/2 120/6/2 121/6/2
f 121/6/2 120/6/2 122/6/2
f 123/5/2 124/5/2 125/5/2
f 125/5/2 124/5/2 126/5/2
f 127/6/2 128/6/2 129/6/2
f 129/6/2 128/6/2 130/6/2
f 131/5/2 132/5/2 133/5/2
f 133/5/2 132/5/2 134/5/2
f 135/5/2 136/5/2 137/5/2
f 137/5/2 136/5/2 138/5/2
f 139/6/2 140/6/2 141/6/2
f 141/6/2 140/6/2 142/6/2
f 143/5/2 144/5/2 145/5/2
f 145/5/2 144/5/2 146/5/2
f 147/5/2 148/5/2 149/5/2
f 149/5/2 148/5/2 150/5/2
f 151/6/2 152/6/2 153/6/2
f 153/6/2 152/6/2 154/6/2
f 155/6/2 156/6/2 157/6/2
f 157/6/2 156/6/2 158/6/2
f 159/5/2 160/5/2 161/5/2
f 161/5/2 160/5/2 162/5/2
f 163/5/2 164/5/2 165/5/2
f 165/5/2 164/5/2 166/5/2
f 167/6/2 168/6/2 169/6/2
f 169/6/2 168/6/2 170/6/2
f 171/6/2 172/6/2 173/6/2
f 173/6/2 172/6/2 174/6/2
f 174/6/2 172/6/2 175/6/2
f 175/6/2 172/6/2 176/6/2
f 177/5/2 178/5/2 179/5/2
f 179/5/2 178/5/2 180/5/2
f 181/5/2 182/5/2 183/5/2
f 183/5/2 182/5/2 184/5/2
f 185/6/2 186/6/2 187/6/2
f 187/6/2 186/6/2 188/6/2
f 189/5/2 190/5/2 191/5/2
f 191/5/2 190/5/2 192/5/2
f 193/5/2 194/5/2 195/5/2
f 195/5/2 194/5/2 196/5/2
f 197/6/2 198/6/2 199/6/2
f 199/6/2 198/6/2 200/6/2
f 201/5/2 202/5/2 203/5/2
f 203/5/2 202/5/2 204/5/2
f 205/5/2 206/5/2 207/5/2
f 207/5/2 206/5/2 208/5/2
f 209/6/2 210/6/2 211/6/2
f 211/6/2 210/6/2 212/6/2
f 213/5/2 214/5/2 215/5/2
f 215/5/2 214/5/2 216/5/2
f 217/5/2 218/5/2 219/5/2
f 219/5/2 218/5/2 220/5/2
f 221/6/2 222/6/2 223/6/2
f 223/6/2 222/6/2 224/6/2
f 225/5/2 226/5/2 227/5/2
f 227/5/2 226/5/2 228/5/2
f 229/6/2 230/6/2 231/6/2
f 231/6/2 230/6/2 232/6/2
f 233/6/2 234/6/2 235/6/2
f 235/6/2 234/6/2 236/6/2
f 240/5/3 238/5/3 237/5/3
f 241/5/3 238/5/3 240/5/3
f 244/5/3 240/5/3 239/5/3
f 244/5/3 242/5/3 241/5/3
f 244/5/3 241/5/3 240/5/3
f 245/5/3 242/5/3 244/5/3
f 246/5/3 242/5/3 245/5/3
f 247/5/3 242/5/3 246/5/3
f 249/5/3 244/5/3 243/5/3
f 249/5/3 245/5/3 244/5/3
f 250/5/3 245/5/3 249/5/3
f 251/5/3 248/5/3 247/5/3
f 251/5/3 247/5/3 246/5/3
f 252/5/3 248/5/3 251/5/3
f 254/5/3 249/5/3 243/5/3
f 255/5/3 249/5/3 254/5/3
f 256/5/3 249/5/3 255/5/3
f 257/5/3 248/5/3 252/5/3
f 258/5/3 248/5/3 257/5/3
f 259/5/3 248/5/3 258/5/3
f 262/5/3 254/5/3 253/5/3
f 262/5/3 255/5/3 254/5/3
f 263/5/3 255/5/3 262/5/3
f 264/5/3 255/5/3 263/5/3
f 265/5/3 260/5/3 259/5/3
f 265/5/3 259/5/3 258/5/3
f 266/5/3 260/5/3 265/5/3
f 267/5/3 260/5/3 266/5/3
f 269/5/3 263/5/3 262/5/3
f 269/5/3 262/5/3 261/5/3
f 270/5/3 263/5/3 269/5/3
f 271/5/3 263/5/3 270/5/3
f 274/5/3 268/5/3 267/5/3
f 274/5/3 267/5/3 266/5/3
f 275/5/3 268/5/3 274/5/3
f 276/5/3 268/5/3 275/5/3
f 277/5/3 272/5/3 271/5/3
f 277/5/3 271/5/3 270/5/3
f 278/5/3 272/5/3 277/5/3
f 279/5/3 272/5/3 278/5/3
f 282/5/3 275/5/3 274/5/3
f 282/5/3 274/5/3 273/5/3
f 283/5/3 275/5/3 282/5/3
f 284/5/3 275/5/3 283/5/3
f 285/5/3 280/5/3 279/5/3
f 285/5/3 279/5/3 278/5/3
f 288/5/3 283/5/3 282/5/3
f 288/5/3 282/5/3 281/5/3
f 289/5/3 286/5/3 285/5/3
f 289/5/3 285/5/3 278/5/3
f 290/5/3 286/5/3 289/5/3
f 291/5/3 286/5/3 290/5/3
f 292/5/3 288/5/3 287/5/3
f 293/5/3 283/5/3 288/5/3
f 293/5/3 288/5/3 292/5/3
f 294/5/3 283/5/3 293/5/3
f 295/5/3 291/5/3 290/5/3
f 295/5/3 292/5/3 291/5/3
f 295/5/3 293/5/3 292/5/3
f 296/5/3 293/5/3 295/5/3
f 297/5/3 293/5/3 296/5/3
f 298/5/3 293/5/3 297/5/3
f 299/5/3 297/5/3 296/5/3
f 300/5/3 297/5/3 299/5/3
f 304/4/3 302/4/3 301/4/3
f 305/4/3 302/4/3 304/4/3
f 308/4/3 304/4/3 303/4/3
f 308/4/3 306/4/3 305/4/3
f 308/4/3 305/4/3 304/4/3
f 309/4/3 306/4/3 308/4/3
f 310/4/3 306/4/3 309/4/3
f 311/4/3 306/4/3 310/4/3
f 313/4/3 308/4/3 307/4/3
f 313/4/3 309/4/3 308/4/3
f 314/3/3 310/3/3 309/3/3
f 314/4/3 309/4/3 313/4/3
f 315/4/3 312/4/3 311/4/3
f 315/3/3 310/3/3 314/3/3
f 315/4/3 311/4/3 310/4/3
f 316/4/3 312/4/3 315/4/3
f 318/4/3 313/4/3 307/4/3
f 319/4/3 313/4/3 318/4/3
f 320/3/3 314/3/3 313/3/3
f 320/4/3 313/4/3 319/4/3
f 320/3/3 315/3/3 314/3/3
f 320/3/3 316/3/3 315/3/3
f 321/4/3 312/4/3 316/4/3
f 321/3/3 316/3/3 320/3/3
f 322/4/3 312/4/3 321/4/3
f 323/4/3 312/4/3 322/4/3
f 325/3/3 320/3/3 319/3/3
f 325/3/3 321/3/3 320/3/3
f 325/3/3 322/3/3 321/3/3
f 326/3/3 322/3/3 325/3/3
f 327/3/3 325/3/3 319/3/3
f 327/7/3 326/7/3 325/7/3
f 328/3/3 322/3/3 326/3/3
f 328/7/3 326/7/3 327/7/3
f 329/3/3 327/3/3 319/3/3
f 329/3/3 328/3/3 327/3/3
f 330/3/3 322/3/3 328/3/3
f 330/3/3 328/3/3 329/3/3
f 331/3/3 329/3/3 319/3/3
f 331/7/3 330/7/3 329/7/3
f 332/3/3 322/3/3 330/3/3
f 332/7/3 330/7/3 331/7/3
f 333/4/3 319/4/3 318/4/3
f 333/4/3 318/4/3 317/4/3
f 334/4/3 319/4/3 333/4/3
f 335/3/3 332/3/3 331/3/3
f 335/4/3 319/4/3 334/4/3
f 335/3/3 331/3/3 319/3/3
f 336/3/3 332/3/3 335/3/3
f 337/3/3 322/3/3 332/3/3
f 337/3/3 332/3/3 336/3/3
f 338/4/3 324/4/3 323/4/3
f 338/3/3 322/3/3 337/3/3
f 338/4/3 323/4/3 322/4/3
f 339/4/3 324/4/3 338/4/3
f 340/4/3 324/4/3 339/4/3
f 341/4/3 336/4/3 335/4/3
f 341/3/3 337/3/3 336/3/3
f 341/4/3 335/4/3 334/4/3
f 342/3/3 337/3/3 341/3/3
f 343/3/3 337/3/3 342/3/3
f 344/4/3 339/4/3 338/4/3
f 344/3/3 337/3/3 343/3/3
f 344/4/3 338/4/3 337/4/3
f 345/4/3 342/4/3 341/4/3
f 345/4/3 341/4/3 334/4/3
f 346/4/3 342/4/3 345/4/3
f 347/3/3 343/3/3 342/3/3
f 347/4/3 342/4/3 346/4/3
f 348/4/3 344/4/3 343/4/3
f 348/3/3 343/3/3 347/3/3
f 349/4/3 339/4/3 344/4/3
f 349/4/3 344/4/3 348/4/3
f 350/4/3 339/4/3 349/4/3
f 351/4/3 348/4/3 347/4/3
f 351/4/3 349/4/3 348/4/3
f 351/4/3 347/4/3 346/4/3
f 352/4/3 349/4/3 351/4/3
f 353/4/3 349/4/3 352/4/3
f 354/4/3 349/4/3 353/4/3
f 355/4/3 353/4/3 352/4/3
f 356/4/3 353/4/3 355/4/3
f 360/6/3 358/6/3 357/6/3
f 362/6/3 360/6/3 359/6/3
f 364/6/3 362/6/3 361/6/3
f 365/6/3 358/6/3 360/6/3
f 365/6/3 360/6/3 362/6/3
f 365/6/3 362/6/3 364/6/3
f 366/6/3 358/6/3 365/6/3
f 368/6/3 364/6/3 363/6/3
f 368/6/3 365/6/3 364/6/3
f 369/6/3 365/6/3 368/6/3
f 370/6/3 365/6/3 369/6/3
f 371/6/3 368/6/3 367/6/3
f 371/6/3 369/6/3 368/6/3
f 372/6/3 369/6/3 371/6/3
f 374/6/3 371/6/3 367/6/3
f 375/6/3 371/6/3 374/6/3
f 376/6/3 371/6/3 375/6/3
f 377/6/3 374/6/3 373/6/3
f 377/6/3 375/6/3 374/6/3
f 378/6/3 375/6/3 377/6/3
f 379/6/3 377/6/3 373/6/3
f 380/6/3 377/6/3 379/6/3
f 381/6/3 379/6/3 373/6/3
f 383/6/3 381/6/3 373/6/3
f 383/6/3 382/6/3 381/6/3
f 384/6/3 382/6/3 383/6/3
f 385/6/3 383/6/3 373/6/3
f 387/6/3 386/6/3 385/6/3
f 389/6/3 385/6/3 373/6/3
f 389/6/3 388/6/3 387/6/3
f 389/6/3 387/6/3 385/6/3
f 390/6/3 388/6/3 389/6/3
f 391/6/3 388/6/3 390/6/3
f 393/6/3 392/6/3 391/6/3
f 393/6/3 391/6/3 390/6/3
f 395/6/3 393/6/3 390/6/3
f 395/6/3 394/6/3 393/6/3
f 396/6/3 394/6/3 395/6/3
f 397/6/3 394/6/3 396/6/3
f 399/6/3 398/6/3 397/6/3
f 399/6/3 397/6/3 396/6/3
f 400/6/3 398/6/3 399/6/3
f 401/6/3 398/6/3 400/6/3
f 403/6/3 402/6/3 401/6/3
f 403/6/3 401/6/3 400/6/3
f 404/6/3 402/6/3 403/6/3
f 405/6/3 402/6/3 404/6/3
f 406/6/3 402/6/3 405/6/3
f 407/6/3 402/6/3 406/6/3
f 408/6/3 402/6/3 407/6/3
f 409/5/4 410/5/4 412/5/4
f 412/5/4 410/5/4 413/5/4
f 411/5/4 412/5/4 416/5/4
f 413/5/4 414/5/4 416/5/4
f 412/5/4 413/5/4 416/5/4
f 416/5/4 414/5/4 417/5/4
f 415/5/4 416/5/4 420/5/4
f 417/5/4 418/5/4 420/5/4
f 416/5/4 417/5/4 420/5/4
f 420/5/4 418/5/4 421/5/4
f 419/5/4 420/5/4 424/5/4
f 421/5/4 422/5/4 424/5/4
f 420/5/4 421/5/4 424/5/4
f 424/5/4 422/5/4 425/5/4
f 423/5/4 424/5/4 427/5/4
f 425/5/4 426/5/4 427/5/4
f 424/5/4 425/5/4 427/5/4
f 427/5/4 426/5/4 428/5/4
f 428/5/4 426/5/4 430/5/4
f 429/5/4 430/5/4 431/5/4
f 431/5/4 430/5/4 432/5/4
f 430/5/4 426/5/4 433/5/4
f 432/5/4 430/5/4 433/5/4
f 433/5/4 426/5/4 434/5/4
f 432/5/4 433/5/4 435/5/4
f 435/5/4 433/5/4 436/5/4
f 436/5/4 433/5/4 437/5/4
f 437/5/4 433/5/4 438/5/4
f 436/5/4 437/5/4 439/5/4
f 439/5/4 437/5/4 440/5/4
f 440/5/4 437/5/4 441/5/4
f 441/5/4 437/5/4 442/5/4
f 440/5/4 441/5/4 443/5/4
f 443/5/4 441/5/4 444/5/4
f 444/5/4 441/5/4 445/5/4
f 445/5/4 441/5/4 446/5/4
f 444/5/4 445/5/4 447/5/4
f 447/5/4 445/5/4 448/5/4
f 449/6/4 450/6/4 452/6/4
f 451/6/4 452/6/4 454/6/4
f 453/6/4 454/6/4 456/6/4
f 452/6/4 450/6/4 457/6/4
f 454/6/4 452/6/4 457/6/4
f 456/6/4 454/6/4 457/6/4
f 457/6/4 450/6/4 458/6/4
f 455/6/4 456/6/4 460/6/4
f 456/6/4 457/6/4 460/6/4
f 460/6/4 457/6/4 461/6/4
f 461/6/4 457/6/4 462/6/4
f 459/6/4 460/6/4 463/6/4
f 460/6/4 461/6/4 463/6/4
f 463/6/4 461/6/4 464/6/4
f 459/6/4 463/6/4 466/6/4
f 466/6/4 463/6/4 467/6/4
f 467/6/4 463/6/4 468/6/4
f 465/6/4 466/6/4 469/6/4
f 466/6/4 467/6/4 469/6/4
f 469/6/4 467/6/4 470/6/4
f 465/6/4 469/6/4 471/6/4
f 471/6/4 469/6/4 472/6/4
f 465/6/4 471/6/4 473/6/4
f 465/6/4 473/6/4 475/6/4
f 473/6/4 474/6/4 475/6/4
f 475/6/4 474/6/4 476/6/4
f 465/6/4 475/6/4 477/6/4
f 477/6/4 478/6/4 479/6/4
f 465/6/4 477/6/4 481/6/4
f 479/6/4 480/6/4 481/6/4
f 477/6/4 479/6/4 481/6/4
f 481/6/4 480/6/4 482/6/4
f 482/6/4 480/6/4 483/6/4
f 483/6/4 484/6/4 485/6/4
f 482/6/4 483/6/4 485/6/4
f 482/6/4 485/6/4 487/6/4
f 485/6/4 486/6/4 487/6/4
f 487/6/4 486/6/4 488/6/4
f 488/6/4 486/6/4 489/6/4
f 489/6/4 490/6/4 491/6/4
f 488/6/4 489/6/4 491/6/4
f 491/6/4 490/6/4 492/6/4
f 492/6/4 490/6/4 493/6/4
f 493/6/4 494/6/4 495/6/4
f 492/6/4 493/6/4 495/6/4
f 495/6/4 494/6/4 496/6/4
f 496/6/4 494/6/4 497/6/4
f 497/6/4 494/6/4 498/6/4
f 498/6/4 494/6/4 499/6/4
f 499/6/4 494/6/4 500/6/4
f 503/6/5 502/6/5 501/6/5
f 504/6/5 502/6/5 503/6/5
f 509/6/5 506/6/5 505/6/5
f 510/6/5 506/6/5 509/6/5
f 511/6/5 508/6/5 507/6/5
f 512/6/5 508/6/5 511/6/5
f 517/6/5 514/6/5 513/6/5
f 518/6/5 514/6/5 517/6/5
f 519/6/5 516/6/5 515/6/5
f 520/6/5 516/6/5 519/6/5
f 525/6/5 522/6/5 521/6/5
f 526/6/5 522/6/5 525/6/5
f 527/6/5 524/6/5 523/6/5
f 528/6/5 524/6/5 527/6/5
f 533/6/5 530/6/5 529/6/5
f 534/6/5 530/6/5 533/6/5
f 535/6/5 532/6/5 531/6/5
f 536/6/5 532/6/5 535/6/5
f 541/6/5 538/6/5 537/6/5
f 542/6/5 538/6/5 541/6/5
f 543/6/5 540/6/5 539/6/5
f 544/6/5 540/6/5 543/6/5
f 547/5/5 546/5/5 545/5/5
f 548/5/5 546/5/5 547/5/5
f 549/5/5 547/5/5 545/5/5
f 550/5/5 547/5/5 549/5/5
f 551/5/5 546/5/5 548/5/5
f 552/5/5 546/5/5 551/5/5
f 557/5/5 554/5/5 553/5/5
f 558/5/5 554/5/5 557/5/5
f 559/5/5 556/5/5 555/5/5
f 560/5/5 556/5/5 559/5/5
f 565/5/5 562/5/5 561/5/5
f 566/5/5 562/5/5 565/5/5
f 567/5/5 564/5/5 563/5/5
f 568/5/5 564/5/5 567/5/5
f 573/5/5 570/5/5 569/5/5
f 574/5/5 570/5/5 573/5/5
f 575/5/5 572/5/5 571/5/5
f 576/5/5 572/5/5 575/5/5
f 581/5/5 578/5/5 577/5/5
f 582/5/5 578/5/5 581/5/5
f 583/5/5 580/5/5 579/5/5
f 584/5/5 580/5/5 583/5/5
f 589/5/5 586/5/5 585/5/5
f 590/5/5 586/5/5 589/5/5
f 591/5/5 588/5/5 587/5/5
f 592/5/5 588/5/5 591/5/5
f 597/5/5 594/5/5 593/5/5
f 598/5/5 594/5/5 597/5/5
f 599/5/5 596/5/5 595/5/5
f 600/5/5 596/5/5 599/5/5
f 605/5/5 602/5/5 601/5/5
f 606/5/5 602/5/5 605/5/5
f 607/5/5 604/5/5 603/5/5
f 608/5/5 604/5/5 607/5/5
f 611/5/5 610/5/5 609/5/5
f 612/5/5 610/5/5 611/5/5
f 613/6/6 614/6/6 617/6/6
f 617/6/6 614/6/6 618/6/6
f 615/6/6 616/6/6 619/6/6
f 619/6/6 616/6/6 620/6/6
f 621/6/6 622/6/6 625/6/6
f 625/6/6 622/6/6 626/6/6
f 623/6/6 624/6/6 627/6/6
f 627/6/6 624/6/6 628/6/6
f 629/6/6 630/6/6 633/6/6
f 633/6/6 630/6/6 634/6/6
f 631/6/6 632/6/6 635/6/6
f 635/6/6 632/6/6 636/6/6
f 637/6/6 638/6/6 641/6/6
f 641/6/6 638/6/6 642/6/6
f 639/6/6 640/6/6 643/6/6
f 643/6/6 640/6/6 644/6/6
f 645/6/6 646/6/6 649/6/6
f 649/6/6 646/6/6 650/6/6
f 647/6/6 648/6/6 651/6/6
f 651/6/6 648/6/6 652/6/6
f 653/6/6 654/6/6 657/6/6
f 657/6/6 654/6/6 658/6/6
f 655/6/6 656/6/6 659/6/6
f 659/6/6 656/6/6 660/6/6
f 661/6/6 662/6/6 665/6/6
f 665/6/6 662/6/6 666/6/6
f 663/6/6 664/6/6 667/6/6
f 667/6/6 664/6/6 668/6/6
f 669/5/6 670/5/6 671/5/6
f 671/5/6 670/5/6 672/5/6
f 673/5/6 674/5/6 677/5/6
f 677/5/6 674/5/6 678/5/6
f 675/5/6 676/5/6 679/5/6
f 679/5/6 676/5/6 680/5/6
f 681/5/6 682/5/6 685/5/6
f 685/5/6 682/5/6 686/5/6
f 683/5/6 684/5/6 687/5/6
f 687/5/6 684/5/6 688/5/6
f 689/6/6 690/6/6 691/6/6
f 691/6/6 690/6/6 692/6/6
f 693/5/6 694/5/6 697/5/6
f 697/5/6 694/5/6 698/5/6
f 695/5/6 696/5/6 699/5/6
f 699/5/6 696/5/6 700/5/6
f 701/5/6 702/5/6 705/5/6
f 705/5/6 702/5/6 706/5/6
f 703/5/6 704/5/6 707/5/6
f 707/5/6 704/5/6 708/5/6
f 709/5/6 710/5/6 713/5/6
f 713/5/6 710/5/6 714/5/6
f 711/5/6 712/5/6 715/5/6
f 715/5/6 712/5/6 716/5/6
f 717/5/6 718/5/6 721/5/6
f 721/5/6 718/5/6 722/5/6
f 719/5/6 720/5/6 723/5/6
f 723/5/6 720/5/6 724/5/6
f 725/5/6 726/5/6 729/5/6
f 729/5/6 726/5/6 730/5/6
f 727/5/6 728/5/6 731/5/6
f 731/5/6 728/5/6 732/5/6
f 733/5/6 734/5/6 735/5/6
f 735/5/6 734/5/6 736/5/6
